<svg xmlns="http://www.w3.org/2000/svg" viewBox="0 0 923.1 371.4" style="enable-background:new 0 0 923.1 371.4" xml:space="preserve">
  <path d="M580.7 54.4c0-.1-.1-.3-.1-.5-3.8-14.8-7.5-29.6-11.3-44.3-.2-1-.7-1.8-.9-2.3-.3-.6-.5-.8-.7-1.3l-2.9-6-4.8 4.4c-14.1 13-28 25.7-41.8 38.3l-3.4 3.2 3 3.6.2.2.3.3 2.7 3.2 3.6-2.2c6.4-3.9 12.5-7.8 18.7-11.6-21 61.3-42 122.5-63 183.8-6.3-55.1-12.7-110.2-19-165.4l-.5-4-4-.4h-.4l-3.2-.3-1.5 2.9C440 77.8 428.5 99.4 417 121c-9.8 18.4-19.6 36.8-29.4 55.1-4.8-15.8-9.6-31.6-14.5-47.5-5.9-19.3-11.8-38.6-17.7-58l-1.2-3.9-4 .4h-.5l-3.2.3-1 3c-6.4 20.3-12.9 40.6-19.3 60.9-6.5 20.4-12.9 40.8-19.3 61.2-6.4 20.2-13.1 40.6-19.3 61-1.5 4.9-3.4 11-5.5 17.6-2.1 6.5-4.3 13.4-6.3 19.7-.2.5-.4 1.1-.5 1.6-4.1-48.2-8.2-96.3-12.3-144.4l-1.1-13.4-7.8 11c-4.9 7-9.4 14-13.7 20.9-4.4 6.9-8.7 13.8-13 20.7-2.2 3.4-4.3 6.8-6.5 10.3-2.2 3.4-4.3 6.8-6.5 10.3-4.4 6.9-8.7 13.8-13.1 20.7-2.5 4-4.9 7.9-7.4 11.9-8.1-28.3-16.1-56-24.1-83.8l-1.1-3.8-4 .3c-.3 0-.5 0-.7.1l-3 .3-1.1 2.8c-10 26-20 51.9-30 77.9-7.1 18.3-14.1 36.7-21.2 55v-202h95.6V68H0v9.9L4.5 87c.7 0 2.4.3 3.7.3H89v282.2l3.9.8c.1 0 .2 0 .3.1.1 0 .2 0 .3.1l4.1.9 1.5-3.9c11.4-29.7 22.9-59.4 34.3-89.1 9.8-25.5 19.6-50.9 29.4-76.4 7.1 24.6 14.2 49.3 21.4 74.3l3 10.5 5.8-9.2c18.3-29 36.3-57.6 54.3-86.1 4.9 57.6 9.8 115.3 14.8 172.9l.3 3.9 3.9.5h.5l4.1.5 1.2-3.9c13.7-43.3 27.5-86.7 41.2-130 12.3-38.7 24.5-77.4 36.8-116.1 4.1 13.5 8.2 26.9 12.3 40.4l16.5 54.3 1.2 4 4.1-.5h.5l2.5-.3 1.2-2.2 32.7-61.5c8.6-16.2 17.2-32.4 25.9-48.5l9.6 83.7 5.7 49.2 5.7 49.2 1 8.9 6.9-5.6c1.6-1.3 2.3-2.8 2.6-3.8 2.5-7.1 4.9-14.3 7.3-21.4 2.4-7.1 4.9-14.3 7.3-21.4 7.8-22.8 15.7-45.7 23.5-68.5 12.6-36.7 25.2-73.5 37.9-110.2 2.5-7.4 5.1-14.8 7.6-22.2 3 5.4 5.9 10.6 8.8 15.8l2.2 4 4.2-1.9c.1 0 .1-.1.2-.1s.2-.1.2-.1l3.6-1.7-1-3.9c.5-.3.4-.5.4-.6zm75 143.8L641 156.7h-15.4v57.2h11.8v-15.6l-1.2-27 15.4 42.6h8.1l15.4-42.6-1.1 27v15.6h11.8v-57.2h-15.5zm0 94.4L641 251.1h-15.4v57.2h11.8v-15.6l-1.2-27 15.4 42.6h8.1l15.4-42.6-1.1 27v15.6h11.8v-57.2h-15.5zm255-197c3.4-1.5 6-3.6 7.7-6.2 1.7-2.6 2.6-5.9 2.6-9.8 0-5.5-1.8-9.8-5.5-12.8s-8.9-4.5-15.6-4.5h-21.3v57.2h11.8V98.6h9.4l10.7 20.9h12.7v-.5l-12.5-23.4zm-4-8.8c-1.6 1.5-3.9 2.2-6.9 2.2h-9.5V71.8h9.5c3.2 0 5.5.8 7 2.3 1.5 1.5 2.3 3.7 2.3 6.4.1 2.7-.7 4.8-2.4 6.3zm-168.3 20.9h20.7l4 11.8h12.5l-21.4-57.2h-10.9L722 119.5h12.5l3.9-11.8zm10.3-30.9 7.2 21.4h-14.3l7.1-21.4zm-109.3 42.7h11.7V71.8h17.6v-9.5h-46.6v9.5h17.3zm232.2-9.5h-26.5V94.7h22.6v-9.2h-22.6V71.8h26.5v-9.5h-38.3v57.2h38.3zm-158.3 46.7L692 213.9h12.5l3.9-11.8h20.7l4 11.8h12.5l-21.4-57.2h-10.9zm-1.7 35.9 7.1-21.4 7.2 21.4h-14.3zm108.6 90.9h22.7v-9.2h-22.7v-13.6h26.5v-9.6h-38.2v57.2h38.3v-9.4h-26.6zm-33.8 5.3-23-37.7h-11.8v57.2h11.8v-37.6l23 37.6h11.8v-57.2h-11.8zm-23.7-91.2 6.2-6.6 14.7 22.9h14l-20.9-31.8 20.3-25.4h-14.5l-14.6 18.8-5.2 7.1v-25.9h-11.8v57.2h11.8zm58.7-91.2c2.2-4.1 3.3-8.9 3.3-14.2v-2.6c0-5.3-1.1-10.1-3.3-14.2-2.2-4.2-5.3-7.4-9.3-9.7-4-2.3-8.4-3.4-13.5-3.4H781v57.2h17.7c5 0 9.5-1.2 13.5-3.5 3.9-2.2 7-5.4 9.2-9.6zm-23 3.6h-5.7V71.8h5.8c4.6 0 8.2 1.5 10.6 4.5 2.4 3 3.6 7.4 3.6 13.2v3c-.1 5.6-1.3 9.9-3.7 12.9-2.4 3.1-5.9 4.6-10.6 4.6zm75 166.9-11.8-25.8h-12.9l18.8 36.5v20.7h12v-20.7l18.7-36.5h-12.8zm-142-23.1c-3.7-2.3-7.9-3.5-12.7-3.5-4.8 0-9 1.2-12.7 3.5-3.7 2.3-6.6 5.6-8.6 9.9-2 4.3-3 9.2-3 14.9v2.8c0 5.5 1.1 10.4 3.1 14.6 2 4.2 4.9 7.5 8.6 9.7 3.7 2.3 7.9 3.4 12.7 3.4 4.8 0 9-1.2 12.7-3.5 3.7-2.3 6.6-5.6 8.6-9.8 2-4.2 3-9.2 3-14.8v-2.6c0-5.6-1-10.5-3.1-14.8-2-4.2-4.9-7.5-8.6-9.8zm-.3 27.4c0 5.9-1.1 10.5-3.2 13.6-2.1 3.1-5.2 4.6-9.1 4.6-4 0-7.1-1.6-9.3-4.8-2.1-3.2-3.2-7.8-3.2-13.6v-2.8c0-5.9 1.1-10.5 3.3-13.5 2.1-3.1 5.2-4.6 9.2-4.6 4 0 7 1.6 9.2 4.7 2.1 3.1 3.2 7.7 3.2 13.7v2.7zm109.3-76.7h-26.6v-15.4h22.6v-9.2h-22.6v-13.6h26.5v-9.6H802v57.2h38.4zm-133.1-85H720v-.5l-12.4-23.4c3.4-1.5 6-3.6 7.7-6.2 1.7-2.6 2.6-5.9 2.6-9.8 0-5.5-1.8-9.8-5.5-12.8s-8.9-4.5-15.6-4.5h-21.3v57.2h11.8V98.6h9.4l10.6 20.9zm-20.1-47.7h9.5c3.2 0 5.5.8 7 2.3 1.5 1.5 2.3 3.7 2.3 6.4 0 2.6-.8 4.7-2.4 6.2-1.6 1.5-3.9 2.2-6.9 2.2h-9.5V71.8z" style="fill:#50c878"/>
</svg>

